# File created by Blade
# Date/Time:  Tue Sep 30 19:15:05 2014
# Frame Rate: 120.000 fps
#------------------------------------------------------
:FULLY-SPECIFIED
:DEGREES
3164
root -0.843598 34.512531 -3.418793 49.651503 -33.740073 -55.015275
Spine -6.281799 21.864451 22.762325
Head -14.193287 -38.800418 29.337074
LeftShoulder 19.600170 8.634825 26.448298
LeftArm -31.396348 -20.279399 -74.489757
LeftForeArm -147.308362 9.294549 -14.125637
LeftHand -0.000039 38.379701 1.800448
LeftHandThumb1 30.357831 13.997178 22.438692
RightShoulder -18.644274 -16.296316 -14.519824
RightArm 59.671194 5.376960 97.048580
RightForeArm 79.880754 -25.134655 4.335084
RightHand 0.000032 -3.136482 22.695109
RightHandThumb1 30.482666 -12.916435 -20.793814
LeftUpLeg -21.199759 25.330230 30.458098
LeftLeg 19.434999 0.000000 0.000000
LeftFoot -20.175686 37.595185 -5.809601
LeftToeBase 6.868200 0.000000 0.000000
RightUpLeg -45.241183 -33.173923 -28.866152
RightLeg 24.448601 -0.000000 0.000000
RightFoot 31.715824 -7.101341 -8.353968
RightToeBase 17.326401 0.000000 0.000000
3165
root -0.863798 34.526832 -3.418993 49.847331 -33.816926 -55.314722
Spine -6.268169 21.892757 22.687459
Head -14.173147 -38.818945 29.596820
LeftShoulder 19.664199 8.670997 26.559764
LeftArm -31.823212 -20.044693 -74.517445
LeftForeArm -147.558205 9.156890 -14.055555
LeftHand -0.000046 38.258396 1.687569
LeftHandThumb1 30.357831 13.997178 22.438692
RightShoulder -18.645634 -16.322047 -14.364565
RightArm 59.635100 5.213504 97.121548
RightForeArm 79.903787 -25.136036 4.325268
RightHand -0.000003 -3.140835 22.682239
RightHandThumb1 30.482666 -12.916435 -20.793814
LeftUpLeg -20.953340 25.579522 30.653325
LeftLeg 19.271900 -0.000000 -0.000000
LeftFoot -20.118675 37.611073 -5.685371
LeftToeBase 7.160000 -0.000000 -0.000000
RightUpLeg -44.570536 -33.097067 -28.885132
RightLeg 20.167299 -0.000000 -0.000000
RightFoot 31.625338 -6.907804 -8.391767
RightToeBase 17.706499 -0.000000 -0.000000
3166
root -0.876098 34.540031 -3.423793 50.078724 -33.874123 -55.556383
Spine -6.354805 21.925668 22.563997
Head -14.133282 -38.786433 29.842887
LeftShoulder 19.772011 8.751733 26.671862
LeftArm -32.175898 -19.923432 -74.570216
LeftForeArm -147.783971 9.064805 -14.037990
LeftHand -0.000012 38.173589 1.483096
LeftHandThumb1 30.357831 13.997178 22.438692
RightShoulder -18.643708 -16.313608 -14.220129
RightArm 59.552884 5.035064 97.172234
RightForeArm 79.927833 -25.161149 4.318806
RightHand 0.000001 -3.085660 22.759230
RightHandThumb1 30.482666 -12.916435 -20.793814
LeftUpLeg -20.822393 25.705416 30.829624
LeftLeg 19.103500 -0.000000 0.000000
LeftFoot -20.289078 37.448358 -6.287640
LeftToeBase 7.012200 0.000000 0.000000
RightUpLeg -44.055169 -33.028564 -28.906113
RightLeg 16.289801 -0.000000 0.000000
RightFoot 31.658630 -6.976186 -8.410140
RightToeBase 18.031401 -0.000000 -0.000000
3167
root -0.883498 34.551429 -3.429793 50.328478 -33.899785 -55.741047
Spine -6.519557 21.989891 22.432668
Head -14.091087 -38.834233 29.956570
LeftShoulder 19.934736 8.818742 26.726999
LeftArm -32.571066 -19.899050 -74.573915
LeftForeArm -147.980725 8.865293 -13.844437
LeftHand 0.000008 38.071929 1.453042
LeftHandThumb1 30.357831 13.997178 22.438692
RightShoulder -18.576034 -16.334817 -14.148908
RightArm 59.383541 4.827297 97.282412
RightForeArm 79.934792 -25.214503 4.324292
RightHand -0.000007 -2.994258 22.834992
RightHandThumb1 30.482666 -12.916435 -20.793814
LeftUpLeg -20.802482 25.773392 30.940420
LeftLeg 19.017200 -0.000000 -0.000000
LeftFoot -20.220122 37.647866 -6.165277
LeftToeBase 7.150000 0.000000 0.000000
RightUpLeg -43.660964 -33.061423 -28.892380
RightLeg 12.790700 -0.000000 -0.000000
RightFoot 31.835126 -7.180260 -8.065246
RightToeBase 18.197599 0.000000 0.000000
3168
root -0.885498 34.559532 -3.441493 50.586535 -33.938296 -55.915116
Spine -6.692961 22.154225 22.279689
Head -14.075408 -38.907097 30.063264
LeftShoulder 19.912203 8.757515 26.807450
LeftArm -32.977948 -19.718585 -74.645227
LeftForeArm -148.198171 8.739061 -13.767819
LeftHand -0.000061 37.966537 1.476148
LeftHandThumb1 30.357831 13.997178 22.438692
RightShoulder -18.462788 -16.364948 -14.072060
RightArm 59.314161 4.747152 97.295961
RightForeArm 79.998343 -25.167338 4.289045
RightHand -0.000021 -3.004379 22.733199
RightHandThumb1 30.482666 -12.916435 -20.793814
LeftUpLeg -20.837459 25.865193 31.011918
LeftLeg 18.968700 0.000000 0.000000
LeftFoot -20.162537 37.835100 -6.022545
LeftToeBase 7.420700 0.000000 0.000000
RightUpLeg -43.373262 -32.959112 -29.018114
RightLeg 9.902000 -0.000000 -0.000000
RightFoot 31.912138 -7.226876 -7.545723
RightToeBase 18.159599 -0.000000 0.000000
3169
root -0.880698 34.564533 -3.457493 50.876790 -33.996172 -56.077213
Spine -6.882337 22.334588 22.117797
Head -14.072117 -38.939058 30.113683
LeftShoulder 19.913680 8.734534 26.865883
LeftArm -33.403261 -19.587408 -74.692029
LeftForeArm -148.397478 8.612596 -13.679546
LeftHand -0.000004 37.901163 1.310311
LeftHandThumb1 30.357831 13.997178 22.438692
RightShoulder -18.386673 -16.354537 -14.061703
RightArm 59.172520 4.613261 97.369353
RightForeArm 80.027585 -25.051861 4.258012
RightHand 0.000021 -2.942186 22.890506
RightHandThumb1 30.482666 -12.916435 -20.793814
LeftUpLeg -20.930805 25.899412 31.072661
LeftLeg 18.950600 -0.000000 -0.000000
LeftFoot -20.177816 37.988491 -6.220106
LeftToeBase 7.203500 0.000000 0.000000
RightUpLeg -43.226070 -32.790626 -29.223611
RightLeg 7.521300 -0.000000 0.000000
RightFoot 32.203763 -7.321500 -6.777754
RightToeBase 18.223200 -0.000000 -0.000000
3170
root -0.874298 34.569831 -3.476793 51.160561 -34.008926 -56.213056
Spine -7.053546 22.497419 22.004008
Head -14.145115 -38.934855 30.101492
LeftShoulder 19.778783 8.720452 26.904520
LeftArm -33.792694 -19.332572 -74.740336
LeftForeArm -148.582712 8.412715 -13.469701
LeftHand 0.000020 37.822445 0.967792
LeftHandThumb1 30.357831 13.997178 22.438692
RightShoulder -18.363041 -16.373780 -14.076032
RightArm 59.100720 4.495747 97.434455
RightForeArm 80.057892 -24.972294 4.232286
RightHand 0.000015 -2.883881 22.895565
RightHandThumb1 30.482666 -12.916435 -20.793814
LeftUpLeg -21.111974 25.899212 31.115875
LeftLeg 19.008400 -0.000000 -0.000000
LeftFoot -20.083043 38.260801 -6.044917
LeftToeBase 7.489400 -0.000000 0.000000
RightUpLeg -43.196150 -32.594932 -29.420589
RightLeg 5.662800 0.000000 0.000000
RightFoot 32.501241 -6.757961 -6.461096
RightToeBase 18.003000 -0.000000 -0.000000
3171
root -0.864598 34.574333 -3.498493 51.434592 -33.987499 -56.361496
Spine -7.203071 22.681111 21.972807
Head -14.172772 -38.944191 29.948401
LeftShoulder 19.757571 8.693235 26.931339
LeftArm -34.063034 -19.268673 -74.773326
LeftForeArm -148.737485 8.337984 -13.433687
LeftHand -0.000024 37.846051 1.161832
LeftHandThumb1 30.357831 13.997178 22.438692
RightShoulder -18.318309 -16.364160 -14.164700
RightArm 58.986686 4.395199 97.495349
RightForeArm 80.086809 -24.959474 4.217751
RightHand -0.000060 -2.836667 22.908203
RightHandThumb1 30.482666 -12.916435 -20.793814
LeftUpLeg -21.301798 25.935740 31.197716
LeftLeg 19.079700 -0.000000 -0.000000
LeftFoot -20.030130 38.449133 -6.152371
LeftToeBase 6.962300 -0.000000 -0.000000
RightUpLeg -43.357414 -32.520241 -29.434998
RightLeg 4.320800 0.000000 0.000000
RightFoot 32.764002 -6.071591 -6.160864
RightToeBase 17.887199 -0.000000 -0.000000
